<?xml version="1.0" standalone="no"?><!DOCTYPE svg PUBLIC "-//W3C//DTD SVG 1.1//EN" "http://www.w3.org/Graphics/SVG/1.1/DTD/svg11.dtd"><svg t="1528699961336" class="icon" style="" viewBox="0 0 1024 1024" version="1.1" xmlns="http://www.w3.org/2000/svg" p-id="6865" xmlns:xlink="http://www.w3.org/1999/xlink" width="100" height="100"><defs><style type="text/css"></style></defs><path d="M7.68000001 153.08799999s165.37600001 106.49600001 301.056 188.92800002 152.064 322.048 169.472 392.70399999l-381.95200001-215.55199999L66.55999998 412.67199999 355.83999999 583.68s-5.12000001-87.04000001-118.272-171.00800001C112.128 318.976 26.624 288.256 26.624 288.256L7.68000001 153.08799999zM1016.31999999 153.08799999s-165.37600001 106.49600001-301.056 188.92800002-152.064 322.048-169.472 392.70399999l381.95200001-215.55199999 29.69600002-106.496-289.28000001 171.00799999s5.12000001-87.04000001 118.27199998-171.00799999c125.95200001-93.696 211.456-124.41600006 211.45600001-124.41600001l18.43199999-135.16800001zM512 48.12799999L371.71200002 245.75999998 512 443.39199998 652.28799998 245.75999998z" fill="#ffffff" p-id="6866" data-spm-anchor-id="a313x.7781069.0.i5" class="selected"></path><path d="M512 825.85599999l-198.65600001-94.71999994 198.65600001 244.73599996 198.65600001-244.73600002z" fill="#ffffff" p-id="6867" data-spm-anchor-id="a313x.7781069.0.i6" class="selected"></path></svg>